<svg version="1.1" id="Layer_1" xmlns="http://www.w3.org/2000/svg"
    xmlns:xlink="http://www.w3.org/1999/xlink" x="0px" y="0px"
    width="100%" viewBox="0 0 800 800" xml:space="preserve">
<path fill="#120000" opacity="1.000000" stroke="none" 
	d="
M31.957714,321.999481 
	C32.518810,320.509064 33.079899,319.018616 34.208000,317.237610 
	C35.797321,316.650360 37.511444,316.611786 37.733536,316.016571 
	C39.674053,310.815735 44.187237,309.318390 48.785175,307.802460 
	C49.388874,307.603424 49.825180,306.896637 50.457497,306.316254 
	C48.613918,305.401062 46.689728,303.714630 45.857906,304.144104 
	C35.638443,309.420227 43.313747,299.781982 41.104065,298.468231 
	C40.897350,298.345306 41.101940,297.530609 41.420609,296.863220 
	C45.636654,293.777649 49.636814,293.859924 54.153564,296.946045 
	C54.976986,294.975800 55.647823,293.370667 56.972607,290.200806 
	C50.815563,294.008850 49.724316,290.303467 48.633003,287.208008 
	C50.005035,286.966217 51.049408,286.668579 52.488808,286.364624 
	C56.304474,284.048492 56.374275,283.423309 53.261932,281.584412 
	C53.085430,280.851166 53.029835,280.422089 53.307846,279.905548 
	C56.045383,278.338135 58.449310,276.858185 60.966637,275.697144 
	C61.473301,276.667358 61.866570,277.318695 61.708611,277.057098 
	C65.046562,275.713043 67.886032,274.569702 71.749695,273.013977 
	C70.854271,275.784302 70.455086,277.019318 70.335571,277.389099 
	C73.197052,278.894470 75.526268,280.119843 77.067825,280.930817 
	C84.069252,278.753632 89.974358,275.551483 93.617226,267.993622 
	C88.358971,268.922729 83.910561,269.396942 79.645538,270.549652 
	C75.346519,271.711548 71.435959,268.492645 72.346710,263.757324 
	C74.615219,261.966492 76.527161,260.162628 78.556213,258.248322 
	C77.564064,257.715637 76.858589,257.336884 76.153114,256.958130 
	C75.729454,255.874237 75.600021,254.437653 74.817047,253.784454 
	C73.451370,252.645126 71.683250,251.988190 70.083801,251.129059 
	C70.120804,250.489426 70.157799,249.849792 70.194801,249.210159 
	C72.501877,248.791595 74.808960,248.373047 77.908112,247.971283 
	C84.776482,245.166214 84.205276,252.657730 89.088974,254.249008 
	C88.454887,251.589920 88.245125,249.543243 87.463379,247.745255 
	C86.603699,245.768005 85.217766,244.019562 84.061111,242.171432 
	C86.757645,241.050262 89.454178,239.929092 92.150711,238.807922 
	C92.416153,237.898468 92.681587,236.988998 92.947029,236.079544 
	C90.100212,234.553406 87.253387,233.027283 84.406570,231.501144 
	C84.944313,230.836533 85.482056,230.171906 86.019798,229.507294 
	C88.965637,228.870178 91.464462,228.994064 94.242241,231.422241 
	C96.004082,232.962341 99.125275,232.947342 101.708015,233.649094 
	C101.520584,230.466629 101.388634,228.226196 101.699936,225.364334 
	C102.860641,225.071274 104.128548,225.305969 104.203056,225.743759 
	C104.585258,227.989532 104.776413,230.285645 104.814850,232.567856 
	C104.868874,235.776245 105.952988,237.405136 110.074142,236.454407 
	C108.303688,233.719620 105.371643,231.441299 109.079834,228.455750 
	C110.601471,230.815323 111.965431,232.930405 113.906723,235.940750 
	C113.906723,233.398666 113.906723,231.940430 114.262924,230.589951 
	C116.344170,232.799042 118.069214,234.900375 119.790733,236.997406 
	C123.261116,232.601944 121.024315,231.028641 117.152328,230.126190 
	C116.388870,229.948257 115.715149,229.385315 115.033806,228.636383 
	C116.676666,226.623581 119.227455,225.181274 119.647346,223.270676 
	C120.130554,221.072021 118.729591,218.459290 118.146965,216.026398 
	C118.419159,215.753937 118.691353,215.481491 118.963547,215.209030 
	C121.091072,217.359100 123.218597,219.509171 125.733337,222.050552 
	C125.733337,219.972794 125.733337,217.987167 125.935791,215.726379 
	C126.455605,213.955734 126.772964,212.460205 127.205551,210.645447 
	C128.214493,210.214493 129.108215,210.102798 130.153229,210.296051 
	C131.232269,211.415405 132.160019,212.229828 133.034302,212.997314 
	C133.982758,211.080704 134.797211,209.434845 135.611679,207.788986 
	C137.450134,210.697449 140.358841,213.567581 135.832138,216.662216 
	C135.475540,216.906021 135.235413,217.503510 135.173798,217.967545 
	C134.431610,223.556686 133.733337,229.151672 132.953110,235.300690 
	C137.513504,232.241486 141.619949,229.486786 145.778702,226.696991 
	C142.412338,220.535706 150.033463,218.383408 150.655228,213.049698 
	C154.103668,218.164276 157.276367,214.019684 161.394669,213.400696 
	C160.789139,215.342072 160.362717,216.709274 159.637329,218.548660 
	C159.724014,219.244003 160.109650,219.467163 160.495285,219.690338 
	C162.317093,220.759720 165.789780,222.095032 165.667953,222.851349 
	C165.201340,225.748245 163.579926,228.459137 162.514832,230.946762 
	C167.696243,231.438751 167.696243,231.438751 167.579834,225.223083 
	C174.678604,225.804977 181.647461,226.376236 188.171722,226.911041 
	C184.553436,223.934784 180.814835,220.859558 176.984512,217.708878 
	C177.575546,215.951401 178.153824,214.231796 178.914429,211.970062 
	C182.700806,215.140060 186.090637,217.978073 190.397202,221.583588 
	C189.569016,216.115082 185.038040,212.808243 186.722595,207.085892 
	C188.674805,209.162216 189.975311,210.545410 191.285767,211.939178 
	C192.273972,210.788483 193.229294,209.676056 194.631912,208.042786 
	C195.061523,210.120346 195.317154,211.356628 195.572800,212.592896 
	C196.029816,212.722244 196.486832,212.851593 196.943848,212.980942 
	C198.011551,209.767258 199.079269,206.553558 200.146973,203.339874 
	C200.422348,203.340057 200.697708,203.340240 200.973083,203.340439 
	C201.337311,207.237030 201.701538,211.133636 202.163528,216.076141 
	C203.824478,213.592224 205.108505,211.671997 206.425003,209.703201 
	C215.725433,212.421417 216.148376,213.306686 211.879181,221.435852 
	C213.613663,220.408569 215.348145,219.381287 217.662689,218.010437 
	C218.121368,218.564041 220.093628,220.283569 219.834808,220.741135 
	C218.343552,223.377594 216.324509,225.715515 214.580246,228.027496 
	C216.117310,228.027496 218.572784,228.027496 221.667816,228.027496 
	C219.540771,233.843872 214.757324,232.212830 210.619736,234.421616 
	C212.956039,235.374924 215.393860,236.143600 217.590134,237.351517 
	C218.884598,238.063431 219.820587,239.448746 220.874527,240.571823 
	C222.918701,242.750015 224.847198,245.048691 227.030991,247.073822 
	C227.464035,247.475418 228.870010,247.000198 229.755035,246.709366 
	C232.282700,245.878769 234.773148,244.934891 237.348404,244.010391 
	C237.782166,242.997894 238.798737,241.483658 238.988510,239.872055 
	C239.109604,238.843826 238.283325,237.275558 237.390869,236.651764 
	C235.857956,235.580307 233.941284,235.057938 231.880997,234.174377 
	C234.451752,229.569489 236.686951,225.565689 238.922165,221.561890 
	C239.341766,221.763474 239.761353,221.965057 240.180954,222.166641 
	C239.770752,223.937653 239.041107,225.708771 239.041702,227.479645 
	C239.042267,229.191818 239.794968,230.903748 240.217285,232.615784 
	C242.441010,231.740601 244.997482,235.502090 247.248444,231.926361 
	C247.801453,231.047913 250.219193,231.343353 252.023407,231.960480 
	C250.806564,232.752457 249.589737,233.544434 248.003357,234.885803 
	C247.105209,237.632492 246.576584,239.829803 246.047943,242.027115 
	C248.053833,242.454544 250.059708,242.881973 252.065582,243.309402 
	C254.187424,245.622375 254.187424,245.622375 253.868729,257.416595 
	C260.897583,254.824371 257.920105,246.505081 263.295410,242.017883 
	C264.579407,244.245102 265.775177,246.319260 267.188385,248.770584 
	C268.598267,248.291077 270.643707,247.595428 272.689117,246.899765 
	C272.878387,247.403915 273.067657,247.908066 273.256897,248.412231 
	C271.410767,249.897903 269.564606,251.383575 267.437683,253.421204 
	C267.212250,254.235458 267.267578,254.497787 267.322906,254.760101 
	C267.628387,254.586578 267.933868,254.413071 268.239349,254.239563 
	C270.351990,254.239563 272.464630,254.239563 274.825470,254.239563 
	C274.825470,255.547302 275.062012,256.561340 274.784149,257.406128 
	C273.642883,260.875885 275.721130,261.221985 278.183014,260.875610 
	C281.552002,260.401672 284.883514,259.661621 288.231110,259.035614 
	C288.442139,259.521973 288.653198,260.008331 288.864227,260.494690 
	C287.190491,261.422821 285.513092,262.344421 283.844330,263.281403 
	C282.707428,263.919739 281.582642,264.579651 280.452423,265.229919 
	C281.703461,265.950195 282.932434,266.714050 284.218567,267.364990 
	C284.618774,267.567566 285.173676,267.464600 285.178833,267.464996 
	C286.132874,269.263000 286.938324,270.780914 288.078461,272.929657 
	C289.538727,270.688660 290.409515,269.352295 291.701508,268.384033 
	C293.574921,271.782318 295.027161,274.812439 296.479370,277.842590 
	C298.324036,279.551422 299.974609,282.392151 302.051270,282.748352 
	C307.418762,283.668854 312.049713,285.274536 315.952087,289.277222 
	C316.824402,290.171936 319.980682,290.186188 321.037109,289.322937 
	C325.691956,285.519226 329.963287,281.246124 334.613861,276.919525 
	C335.872498,278.382416 336.696991,279.340698 338.035919,280.896881 
	C338.253754,280.350616 338.325043,279.823853 338.618805,279.497070 
	C339.725708,278.265533 340.699371,276.629791 342.103699,276.014160 
	C344.430542,274.994202 347.262024,275.053284 349.491272,273.902802 
	C351.780396,272.721436 353.602478,270.634979 355.879944,268.735291 
	C356.782898,269.811401 357.583527,270.765594 358.543243,271.909332 
	C359.169556,271.406494 359.721619,270.649780 360.426117,270.460510 
	C362.086853,270.014374 363.812500,269.691833 365.526764,269.601746 
	C366.810913,269.534241 368.136871,270.141418 369.411804,270.040161 
	C373.408478,269.722931 377.000793,269.463684 378.478241,274.653381 
	C378.891479,276.104950 381.666534,276.884155 383.859283,278.293976 
	C385.360199,280.489746 387.303497,283.332642 389.109863,286.949646 
	C389.583221,295.778137 389.583221,295.778137 386.024963,300.320679 
	C388.503143,299.740479 390.570099,299.256531 393.174744,298.646729 
	C392.411133,294.787201 391.637909,290.878906 390.864685,286.970612 
	C391.279663,286.074097 391.904572,285.212616 392.061249,284.273041 
	C392.306427,282.802643 392.235016,281.279419 392.297729,279.778595 
	C393.723236,280.414307 395.148712,281.050018 396.541199,281.671021 
	C397.071899,280.976715 397.708649,280.143646 397.892151,279.903564 
	C406.668976,283.914612 414.339813,288.914703 420.034973,296.468689 
	C420.327484,296.234131 420.245331,296.301300 420.245331,296.301300 
	C421.941986,299.520447 423.638641,302.739563 425.586548,306.435394 
	C425.258911,306.919830 424.548126,307.970764 423.873444,308.968353 
	C428.888275,315.579163 429.416199,318.857391 425.929230,321.233704 
	C427.175171,324.317902 428.425995,327.414276 429.763641,330.725494 
	C428.436432,331.423920 427.317352,332.012848 425.129059,333.164429 
	C427.498993,336.446838 429.722778,339.526794 432.418427,343.260254 
	C432.151337,344.391083 431.559875,346.895142 430.396362,349.297852 
	C428.980957,349.109589 428.137695,349.022736 427.294403,348.935883 
	C427.204498,349.153259 427.114624,349.370636 427.024719,349.587982 
	C427.694641,349.933014 428.364594,350.278046 429.034515,350.623077 
	C429.419769,352.469360 429.804993,354.315613 430.667114,356.565186 
	C431.774384,358.360168 432.404755,359.751862 433.035126,361.143555 
	C430.750061,360.774170 428.464966,360.404785 426.179901,360.035400 
	C426.224030,359.579407 426.268158,359.123444 426.312286,358.667450 
	C421.722382,360.644135 405.598877,355.358337 402.779907,351.413757 
	C398.900085,353.490234 395.102295,355.522827 391.152985,357.636505 
	C389.455322,354.820526 388.432709,351.527313 384.900116,355.028351 
	C384.263214,353.331818 383.728058,351.906372 382.732208,349.253754 
	C381.653748,352.939331 380.926727,355.423828 380.385010,357.274994 
	C377.940704,357.470184 376.204651,357.608826 373.928162,357.848480 
	C371.751343,353.935181 372.265625,348.898834 367.514313,345.554260 
	C366.405670,349.313568 365.449036,352.557526 364.374573,356.101990 
	C364.300110,357.255798 364.343475,358.109070 364.267181,359.339142 
	C364.237640,360.492889 364.327759,361.269867 364.417877,362.046844 
	C364.417877,366.185455 364.417877,370.324036 364.417877,375.537964 
	C366.378632,374.429657 367.812042,373.619415 369.738983,372.530182 
	C373.858765,373.871307 378.210175,372.354980 382.927765,370.700348 
	C386.496063,369.448822 391.254272,371.985535 394.201782,366.922882 
	C394.838806,368.017761 395.252472,368.728699 395.812714,369.691589 
	C397.339172,368.753143 398.848694,367.825073 400.519836,366.797668 
	C400.762726,367.743073 400.991455,368.633362 401.198242,369.438263 
	C402.523865,369.438263 404.106873,368.961060 405.037048,369.537415 
	C406.985474,370.744659 408.303711,371.605927 410.738922,369.988190 
	C411.899200,369.217468 415.011200,370.038849 416.361328,371.178711 
	C419.209686,373.583557 421.333374,372.861145 424.138763,371.269318 
	C425.187744,370.674164 428.158813,371.361084 428.692535,372.326447 
	C431.045502,376.582397 434.811707,374.183014 437.164703,373.693024 
	C441.970764,372.692322 446.340393,372.957977 451.100189,373.787292 
	C456.278625,374.689606 461.709686,374.037598 466.999634,374.455566 
	C469.115234,374.622742 470.541107,375.516602 472.887695,373.663544 
	C474.711212,372.223511 478.581787,373.375641 481.922089,373.375641 
	C483.656372,370.439972 486.990295,369.898132 490.486145,371.838348 
	C493.131989,373.306824 496.239105,373.944183 499.916779,375.064758 
	C502.046173,375.961121 503.325012,376.958252 504.775177,377.464478 
	C506.115021,377.932159 507.747986,378.299469 509.059418,377.962372 
	C512.236633,377.145630 515.301819,375.892792 518.412109,374.815735 
	C523.576538,374.017151 528.723206,373.052216 533.913818,372.498779 
	C536.107056,372.264923 538.463135,372.627533 540.621887,373.191223 
	C545.310181,374.415466 550.803711,371.696594 554.214478,366.032379 
	C555.716248,367.604004 556.993103,371.679596 559.553467,366.420105 
	C560.242615,369.494171 561.320190,371.433044 563.651733,367.912384 
	C570.398987,373.665833 575.302063,373.845795 580.444702,367.533661 
	C580.942322,368.632751 581.376343,369.591278 581.984436,370.934204 
	C583.216553,369.948181 584.295227,369.084900 584.492432,368.927094 
	C586.692993,369.286377 588.267944,369.543518 590.327515,369.376892 
	C592.865601,369.657349 594.919189,370.361542 596.972717,371.065735 
	C597.621338,371.447540 598.635010,372.314636 598.865723,372.141052 
	C607.457214,365.676788 614.845764,372.484772 621.395081,373.554321 
	C624.610840,371.771210 627.026978,370.397888 629.484009,369.102203 
	C629.891296,368.887421 630.533447,368.853882 630.969910,369.009308 
	C632.138489,369.425507 633.254333,369.989838 634.391113,370.495361 
	C634.226196,368.991486 634.258728,367.429810 633.839966,366.000275 
	C633.435974,364.621002 632.566467,363.378082 632.018921,361.429382 
	C632.480957,360.493469 632.825623,360.203430 633.474915,360.076935 
	C635.183655,361.686157 636.587769,363.131805 638.032227,364.894196 
	C640.470276,366.958466 642.576965,367.650879 644.203186,364.154755 
	C644.526855,363.458984 646.027954,363.310883 647.138062,363.163879 
	C647.890625,364.523529 648.491211,365.629578 649.091797,366.735596 
	C649.642212,366.683289 650.192566,366.630981 650.742981,366.578674 
	C650.742981,364.546295 650.742981,362.513885 650.680298,360.049072 
	C650.370056,353.752472 650.122559,347.888306 649.875061,342.024139 
	C649.235291,336.331024 654.903137,333.870117 656.623108,329.435364 
	C656.986328,330.217407 657.134216,330.839844 657.282043,331.462311 
	C657.493408,331.417908 657.704773,331.373505 657.916138,331.329102 
	C657.592651,330.569244 657.269104,329.809418 656.945618,329.049561 
	C656.945618,326.177948 656.945618,323.306305 656.945618,320.434692 
	C657.459106,320.382629 657.972595,320.330597 658.486084,320.278534 
	C659.372620,328.420227 660.259155,336.561890 661.307556,346.189850 
	C662.171204,342.644226 662.676331,340.570374 663.181458,338.496521 
	C663.680908,338.409912 664.180298,338.323334 664.679749,338.236725 
	C665.746338,340.401703 666.812988,342.566711 668.072144,345.122437 
	C669.159302,345.345215 670.959167,345.714081 672.597473,346.049835 
	C673.222290,339.248962 673.876160,332.131744 674.530090,325.014526 
	C677.860413,333.213562 677.617126,341.153259 674.721619,349.076172 
	C673.638306,352.040405 673.225342,355.232635 676.769836,357.392365 
	C678.585876,355.618256 674.782288,351.498047 679.630859,350.666656 
	C680.591919,350.663147 681.422119,351.243744 682.078857,351.703033 
	C683.145874,350.750885 684.036804,349.955933 685.052368,349.513306 
	C686.006897,352.170837 686.836731,354.476105 687.666565,356.781372 
	C688.133972,356.767303 688.601318,356.753235 689.068665,356.739136 
	C689.344421,353.830780 689.620178,350.922424 690.073242,347.716278 
	C691.413757,350.401703 692.577087,353.384918 693.730530,356.342957 
	C697.960022,353.635468 698.721313,346.250458 694.987610,343.100067 
	C695.446777,341.873291 695.905945,340.646515 696.365173,339.419739 
	C696.742371,339.466248 697.119568,339.512756 697.496704,339.559265 
	C697.802979,340.807892 698.109253,342.056549 698.694702,344.443390 
	C699.653198,335.993195 700.485962,328.651703 701.645630,321.603271 
	C701.972656,325.004517 701.972656,328.112732 701.972656,331.220917 
	C702.206177,331.240997 702.439697,331.261078 702.673157,331.281128 
	C703.095642,329.795776 703.518127,328.310425 704.342773,326.695923 
	C706.135315,328.369202 707.855347,330.011536 708.828491,332.016418 
	C709.929077,334.283630 710.359192,336.876251 711.080872,339.327393 
	C711.617310,339.267700 712.153748,339.208008 712.690186,339.148315 
	C713.032532,337.855316 713.374817,336.562286 713.843628,335.020264 
	C714.885132,334.851105 715.800232,334.930908 716.523315,334.993988 
	C716.959534,329.362823 717.432739,323.253998 717.905945,317.145172 
	C718.372498,317.171906 718.838989,317.198608 719.305481,317.225342 
	C719.526794,318.148926 719.748047,319.072510 719.832397,320.309113 
	C719.748718,321.066803 719.801880,321.511414 719.710327,322.292175 
	C719.503235,324.097046 719.440735,325.565826 719.378296,327.034576 
	C718.944885,330.449402 718.511475,333.864197 718.071533,337.330353 
	C719.706848,337.803741 721.325195,338.272217 723.067505,339.434021 
	C723.128967,340.412231 723.066467,340.697144 723.004028,340.982025 
	C719.343689,344.253662 720.360657,352.394287 725.075928,354.933655 
	C725.811279,351.636139 726.524231,348.439087 727.534607,343.908508 
	C728.393982,348.666199 729.026794,352.169373 729.659607,355.672516 
	C730.033325,355.714996 730.407043,355.757446 730.780762,355.799927 
	C731.740784,353.060272 732.700806,350.320648 733.734436,347.371033 
	C735.377869,348.569641 736.651672,349.498657 737.925415,350.427673 
	C738.182129,350.148956 738.438843,349.870270 738.695496,349.591553 
	C738.939514,350.894440 739.183472,352.197357 739.501465,353.895874 
	C743.973450,347.851837 743.859497,343.484833 739.237671,333.398163 
	C738.307312,333.899048 737.391785,334.391876 736.476257,334.884735 
	C736.226318,334.684479 735.976440,334.484222 735.726501,334.283936 
	C736.629944,332.539459 737.533447,330.794983 738.793457,328.362152 
	C739.961914,330.294922 740.734009,331.572052 741.854248,333.425018 
	C741.854248,329.373108 741.854248,326.009888 741.854248,322.646667 
	C742.390869,322.593475 742.927490,322.540314 743.464111,322.487152 
	C744.351501,331.617645 745.238892,340.748138 746.126282,349.878632 
	C746.544800,349.884064 746.963379,349.889465 747.381897,349.894897 
	C747.758911,347.437317 748.135864,344.979736 748.589294,342.023987 
	C749.968201,342.712921 751.131714,343.294250 752.762512,344.109009 
	C751.197632,337.585754 755.297668,334.823730 759.740662,332.390808 
	C760.286560,327.850616 760.829163,323.337860 761.371765,318.825134 
	C761.722961,318.843628 762.074097,318.862122 762.425293,318.880615 
	C762.425293,322.342499 762.425293,325.804382 762.425293,329.553040 
	C771.151062,330.056274 766.679016,335.803986 766.427429,339.641876 
	C768.918945,338.864044 771.056396,338.196747 773.193787,337.529449 
	C772.887085,339.991394 772.816345,342.511749 772.224487,344.903137 
	C771.008423,349.816772 769.513489,354.661407 768.133362,359.534424 
	C768.587891,359.774536 769.042419,360.014618 769.496948,360.254700 
	C770.310425,358.106445 771.123962,355.958191 772.270813,353.732758 
	C772.829346,354.867157 773.054504,356.078766 773.279663,357.290375 
	C771.170471,364.057007 769.397400,370.959625 766.748413,377.507935 
	C765.947937,379.486908 762.857849,380.786591 760.560059,381.836060 
	C758.678284,382.695496 756.415649,382.721008 754.231079,383.842010 
	C755.866028,384.154633 757.534668,384.348969 759.129272,384.803284 
	C763.082825,385.929626 767.573608,386.572418 767.134705,392.377930 
	C767.122742,392.535645 767.189697,392.706604 767.247070,392.861237 
	C768.968323,397.500580 770.672668,402.146393 772.426392,406.773499 
	C773.230530,408.895172 773.963196,410.765747 771.077759,412.150085 
	C770.359924,412.494446 769.992615,414.638428 770.260803,415.765747 
	C771.022766,418.968964 772.311279,422.043884 773.155396,425.232056 
	C773.533936,426.661774 773.346924,428.241241 773.471802,430.953430 
	C771.395752,428.271393 770.120972,426.624573 768.846252,424.977753 
	C768.282349,425.108917 767.718506,425.240051 767.154602,425.371216 
	C767.154602,427.348114 766.433655,429.736023 767.284241,431.227997 
	C770.332092,436.573914 766.197205,436.814667 762.778992,438.161041 
	C762.951355,442.096069 763.134644,446.280579 763.317932,450.465088 
	C763.074463,450.484711 762.830994,450.504364 762.587463,450.523987 
	C762.245605,449.491028 761.903809,448.458099 761.333740,446.935028 
	C761.015137,446.293304 760.924683,446.141693 760.847778,445.595612 
	C760.544861,442.809601 760.228333,440.417999 759.985901,437.568878 
	C759.855835,433.016754 759.651672,428.922180 759.447449,424.827606 
	C759.073975,424.856049 758.700439,424.884491 758.326904,424.912933 
	C758.326904,429.299408 758.326904,433.685852 758.267700,438.477844 
	C758.097412,440.510529 757.986267,442.137634 757.552551,443.567993 
	C755.557190,436.653351 753.884399,429.935516 752.132141,422.898376 
	C750.903870,423.688385 749.776978,424.413147 748.115967,425.481445 
	C747.738831,422.272888 747.434570,419.684357 747.130371,417.095825 
	C746.740479,417.105804 746.350647,417.115814 745.960815,417.125793 
	C745.406250,423.468964 744.851685,429.812103 744.007935,435.958252 
	C742.533813,434.501678 741.348999,433.242157 740.164124,431.982605 
	C741.457336,426.765991 744.502747,421.718140 741.705017,416.106873 
	C741.220459,415.135040 740.703308,414.179413 739.058777,413.413086 
	C739.184631,415.375061 739.310486,417.337067 739.460754,419.678802 
	C738.585083,418.190918 737.870972,416.977631 736.715027,415.013550 
	C735.877441,416.827026 735.329773,418.012817 734.296814,420.249146 
	C732.898865,416.781830 731.771912,413.986694 730.084717,409.802032 
	C729.103333,414.563263 728.393005,418.009460 727.439758,422.634369 
	C726.668335,418.527374 726.097046,415.486053 725.509705,412.358856 
	C720.514343,412.606781 721.050781,416.075714 721.013977,419.136627 
	C720.976257,422.271484 721.005615,425.407135 721.005615,428.585693 
	C721.037903,428.622681 721.107910,428.702850 721.177917,428.783020 
	C720.544739,426.963684 719.911499,425.144318 719.278320,423.324982 
	C718.861145,423.340942 718.443970,423.356934 718.026794,423.372925 
	C718.630005,431.007446 719.233215,438.641968 719.820618,446.962494 
	C719.897888,448.105347 719.990967,448.562256 720.084045,449.019165 
	C720.084045,449.019165 719.931030,449.475891 719.589783,449.767578 
	C718.568726,448.920624 717.888977,447.781982 717.238281,446.320557 
	C717.089355,441.676025 716.911377,437.354309 716.845825,432.757050 
	C716.905701,431.942383 716.853027,431.403259 716.800354,430.864105 
	C716.623596,430.851868 716.446838,430.839600 716.270142,430.827332 
	C716.127869,431.526398 715.985535,432.225464 715.547302,432.997070 
	C713.981262,430.391235 712.711182,427.712860 711.572937,425.312439 
	C710.007202,430.005524 708.401794,434.817322 706.512451,439.844727 
	C705.006226,439.816467 703.783997,439.572662 702.447327,439.306000 
	C702.019165,441.463318 701.573364,443.709320 701.127625,445.955353 
	C701.005310,445.092896 700.882935,444.230469 700.571838,442.790344 
	C700.234375,441.807098 700.085693,441.401581 699.937012,440.996063 
	C699.693787,435.613037 699.450623,430.230011 699.207458,424.846954 
	C698.971436,424.796082 698.735413,424.745209 698.499390,424.694336 
	C698.182861,425.552460 697.866272,426.410583 697.390320,427.700836 
	C696.156982,426.521973 695.049072,425.462982 694.496094,424.934387 
	C695.505066,422.559235 696.297852,420.692902 697.144653,418.020660 
	C696.528198,414.533081 695.857788,411.851440 695.187317,409.169769 
	C694.613159,409.195129 694.038940,409.220490 693.464722,409.245819 
	C693.057617,411.844971 692.650452,414.444092 692.243347,417.043243 
	C692.193542,417.243378 692.143738,417.443512 691.673584,417.928833 
	C690.370972,415.414948 689.488770,412.615875 688.203308,408.537445 
	C686.849365,411.997101 685.881287,414.470703 684.913208,416.944336 
	C683.903320,416.044952 682.893494,415.145569 681.566284,413.963531 
	C680.945007,415.501343 680.331482,417.020142 679.717896,418.538971 
	C679.521912,418.476501 679.325928,418.414062 679.130005,418.351624 
	C679.507141,416.727509 679.884338,415.103424 680.261475,413.479309 
	C678.371277,416.377289 675.030518,405.505676 673.553589,414.629089 
	C672.761658,416.037994 672.363464,416.971863 671.932861,418.268951 
	C671.499146,420.009674 671.097839,421.387146 670.693542,422.774902 
	C669.431641,422.090302 668.396790,421.528900 668.177185,421.409729 
	C666.899109,424.096069 665.793152,426.420685 664.687134,428.745300 
	C664.121521,428.571930 663.555847,428.398590 662.990234,428.225220 
	C662.571655,426.284058 662.153137,424.342926 661.582581,421.696930 
	C660.282837,430.645660 659.097717,438.805481 657.912598,446.965271 
	C657.584778,446.324158 657.113464,445.716827 656.953247,445.036255 
	C656.115540,441.478546 655.367065,437.899933 654.567017,434.333221 
	C654.066162,432.100372 653.529114,429.875671 652.837952,426.918152 
	C649.300659,427.750092 652.053040,431.759155 650.185547,433.943359 
	C650.185547,422.552765 650.185547,411.496246 650.185547,400.439758 
	C649.804504,400.345703 649.423523,400.251678 649.042480,400.157623 
	C648.706238,401.167755 648.369995,402.177887 647.697144,403.472443 
	C646.769958,403.992004 646.179260,404.227112 645.588562,404.462189 
	C646.306885,404.651398 647.025146,404.840637 647.743469,405.029846 
	C647.663330,405.836090 647.583252,406.642365 647.111389,407.922394 
	C645.489990,407.906860 644.260437,407.417542 643.030884,406.928162 
	C642.692139,406.129944 642.353394,405.331696 641.371704,404.779785 
	C640.728699,405.026123 640.575867,404.876373 640.586548,404.433655 
	C640.044861,403.980591 639.492371,403.970276 638.762024,403.871277 
	C638.584106,403.782593 638.210571,403.918884 638.210571,403.918884 
	C637.484619,403.875183 636.363892,403.511932 636.097961,403.840515 
	C634.565063,405.734436 633.234314,407.791962 631.050415,410.352844 
	C630.123169,411.308807 629.980530,411.706024 629.198975,411.570740 
	C628.926758,410.001160 629.293518,408.964050 629.893921,407.681213 
	C630.598633,406.669312 631.069824,405.903137 631.792908,404.918152 
	C633.553467,401.915436 636.632019,399.391541 633.883484,395.682526 
	C632.320923,396.813538 631.076843,397.713959 629.832825,398.614380 
	C629.832825,397.822052 629.832825,397.029785 629.832825,396.237488 
	C629.539429,396.628021 629.245972,397.018524 628.952576,397.409027 
	C626.694092,396.123169 624.435669,394.837280 622.328369,393.637482 
	C619.117676,394.426788 615.683594,395.169250 612.310059,396.125275 
	C607.741272,397.419983 603.538269,397.611725 598.925171,395.396942 
	C597.101929,394.521545 593.796143,396.734222 591.278564,397.912628 
	C589.707397,397.971558 587.987671,393.639435 586.311462,398.357452 
	C585.061340,397.769501 583.811218,397.181549 582.330200,396.484985 
	C579.436584,400.117554 577.735901,397.974091 576.506592,394.116486 
	C575.949280,395.313446 575.556824,396.156433 575.144043,397.043152 
	C572.017700,394.028992 560.972839,396.608734 559.401978,400.257294 
	C557.687683,399.549377 555.978943,398.843811 553.759644,398.458038 
	C552.651794,398.784058 552.054688,398.790253 551.457520,398.796448 
	C548.763062,393.313660 545.579468,392.046844 540.149292,394.138062 
	C536.298828,395.620911 532.707642,394.920685 528.862671,393.393921 
	C526.163330,392.322083 522.780823,393.122864 519.838196,392.474854 
	C515.738525,391.572021 511.764923,390.096802 507.668152,388.845398 
	C502.642181,390.344055 496.965088,392.036407 491.288330,393.729828 
	C489.167358,394.362549 487.077148,395.290741 484.914307,395.512390 
	C483.778625,395.628723 482.516327,394.510010 481.357910,394.466888 
	C477.968445,393.678070 474.611969,392.565674 471.177795,392.215912 
	C468.944061,391.988434 466.597290,392.871429 463.750580,393.564087 
	C458.722504,393.859802 454.245026,393.848358 449.767517,393.836884 
	C444.652405,393.994965 439.571686,394.234955 434.468323,393.108612 
	C432.711090,392.720795 430.639130,393.974945 428.678711,394.243439 
	C425.353455,394.698883 422.002563,394.967346 418.662415,395.314392 
	C418.635712,394.864014 418.609009,394.413605 418.582306,393.963196 
	C417.422302,394.647461 416.311371,395.442383 415.088379,395.984436 
	C413.888275,396.516357 412.574219,396.791290 411.342316,396.522949 
	C409.690155,396.680420 408.038025,396.837891 405.869812,397.215210 
	C404.590515,397.949524 403.827271,398.463989 402.988373,398.629028 
	C402.481171,397.857941 402.049591,397.436249 401.618042,397.014587 
	C401.405029,397.674164 401.191986,398.333771 400.569000,398.945282 
	C399.432709,399.105835 398.706360,399.314423 397.867981,399.285004 
	C397.587433,398.998322 397.418915,398.949677 397.166260,398.571594 
	C396.527893,397.621185 395.973633,397.000153 394.676453,395.546722 
	C395.065063,397.460052 395.222961,398.237457 395.235199,399.277313 
	C395.073608,399.739288 395.057709,399.938812 394.735352,399.947754 
	C393.242981,398.843323 392.057068,397.929504 390.876678,396.668884 
	C390.487579,395.926300 390.092987,395.530548 389.698395,395.134766 
	C389.496521,395.768341 389.294647,396.401917 388.819855,397.041687 
	C388.365723,397.031525 388.184509,397.015106 388.031586,396.690948 
	C387.842682,396.059937 387.625458,395.736664 387.408234,395.413422 
	C387.351318,395.951141 387.294434,396.488831 387.058655,397.266815 
	C383.551300,396.443726 380.226562,395.368042 376.885223,394.346588 
	C376.676788,394.282837 376.338379,394.644287 375.701843,394.556915 
	C373.356049,394.095917 371.368835,393.885895 368.222473,393.553406 
	C367.847351,393.355957 366.296570,392.539642 364.459473,391.572632 
	C364.459473,396.763306 364.459473,400.851990 364.337433,405.367188 
	C364.288300,407.560333 364.361206,409.326935 364.388000,411.446777 
	C365.468414,414.827576 366.594971,417.855164 367.721558,420.882782 
	C368.254150,420.968842 368.786743,421.054932 369.319336,421.141022 
	C370.729645,417.148254 372.139923,413.155487 373.742615,408.618011 
	C375.584442,413.940033 377.770996,408.622559 380.206818,409.132935 
	C380.779541,411.780640 381.344757,414.393707 382.189209,418.297852 
	C383.392212,415.243073 384.034332,413.612518 384.749664,411.796021 
	C387.384888,413.844208 389.666443,414.502258 390.449097,410.063538 
	C391.178284,410.028931 391.593414,409.979828 392.341034,410.132080 
	C394.655579,410.811829 396.637634,411.290192 398.619659,411.768524 
	C399.602570,413.263550 400.585480,414.758575 401.573639,416.261627 
	C410.201355,407.318909 422.386414,410.305450 431.990845,405.295837 
	C432.280579,405.731262 432.570282,406.166687 432.859985,406.602112 
	C431.661316,408.523590 430.462677,410.445068 428.850525,413.029327 
	C428.910492,413.531616 429.093781,415.066132 429.328705,417.032959 
	C429.418854,417.041260 430.531647,417.143555 431.947754,417.273743 
	C432.067200,419.715057 432.186279,422.148621 432.304230,424.559387 
	C430.271393,427.052948 427.726227,430.174957 425.351349,433.088074 
	C427.404816,435.010498 428.550781,436.083374 429.349121,437.629364 
	C428.736084,438.740051 428.470764,439.377594 428.205444,440.015167 
	C428.119904,440.748657 428.034363,441.482147 427.565002,442.726562 
	C423.176239,446.415314 429.818726,446.622284 428.781250,448.972137 
	C427.430176,451.592712 425.865509,454.132507 424.829376,456.872192 
	C424.393311,458.025330 425.073547,459.600647 425.316589,461.546753 
	C422.535370,465.723663 419.497284,470.696686 416.013916,475.335388 
	C414.400330,477.484131 412.079315,479.227783 409.792236,480.713684 
	C406.719513,482.710022 403.424622,484.396362 400.106049,485.963684 
	C399.048798,486.463013 397.612213,486.159149 396.179596,485.164795 
	C395.004028,485.883148 393.828430,486.601532 392.141418,486.978638 
	C391.443909,486.382751 391.214355,486.176453 390.975708,485.631226 
	C391.575317,479.633148 392.140564,474.022400 392.738983,468.082550 
	C390.677063,468.643738 389.448090,468.978210 388.148926,469.331818 
	C390.515930,472.887390 389.687195,481.361755 386.421753,484.960846 
	C385.370331,486.668518 384.683411,488.319550 383.608765,489.906525 
	C381.507812,490.907349 379.794586,491.972168 378.045654,493.045349 
	C378.009949,493.053680 378.054291,493.112091 377.817169,493.328369 
	C377.366028,494.353638 377.152008,495.162659 376.596313,496.205139 
	C371.825073,497.104553 367.395477,497.770538 362.965851,498.436493 
	C360.554291,497.676758 358.231567,493.171082 355.764832,498.705902 
	C354.585663,497.584564 353.708435,496.672852 352.751068,495.855042 
	C350.287262,493.750336 348.394867,491.181335 344.196320,491.663696 
	C342.290497,491.882660 337.261993,492.004242 338.073730,486.459076 
	C337.099182,487.504486 336.124603,488.549927 334.930237,489.831146 
	C331.779541,487.205383 328.715729,484.652039 325.102417,481.803955 
	C323.140381,479.767792 321.727814,478.026398 320.240784,476.193237 
	C318.786560,477.006348 317.339142,477.815643 315.891724,478.624939 
	C313.702545,479.859131 311.513336,481.093262 308.758606,482.691254 
	C306.223755,483.486053 304.254456,483.917023 302.285156,484.347961 
	C302.285156,484.347961 302.324188,484.113251 302.231445,483.777283 
	C301.796600,483.631958 301.454437,483.822632 301.112305,484.013275 
	C297.147308,487.383789 293.284393,490.825989 292.361023,496.903992 
	C292.292816,497.428009 292.447052,497.815674 292.327820,498.061890 
	C291.818115,498.657593 291.427612,499.007080 290.805786,499.207153 
	C290.399536,499.001953 290.224609,498.946228 290.049683,498.890472 
	C289.279541,497.600861 288.509430,496.311218 287.739288,495.021606 
	C286.993530,496.337097 286.247803,497.652588 285.093353,499.689026 
	C284.741760,499.760712 283.343109,500.045898 281.155426,500.491974 
	C283.906372,503.056976 286.186371,505.182831 287.981995,507.599854 
	C287.329132,507.952576 287.160675,508.014160 286.992188,508.075745 
	C284.568573,507.548065 282.166656,506.865082 279.717102,506.523407 
	C273.657196,505.678162 273.355225,506.123016 275.798798,512.358459 
	C272.935455,512.603821 270.208008,512.837524 266.359039,513.167297 
	C268.423706,514.758423 269.848480,515.856445 271.860718,517.294006 
	C274.194427,521.024414 271.405426,519.949036 269.857239,519.796570 
	C268.758911,518.826111 267.745087,518.237793 267.244415,517.947266 
	C265.732971,520.662537 264.544037,522.798401 263.307953,525.018982 
	C257.651520,520.990540 261.563782,511.575531 252.216278,509.513214 
	C254.235611,513.312622 255.687805,516.044983 257.140015,518.777283 
	C256.624481,518.740112 256.108948,518.702881 255.593399,518.665649 
	C254.692429,520.044312 253.791458,521.422974 252.747894,523.019836 
	C246.173981,523.822632 244.467133,525.176025 246.116547,529.387085 
	C246.866959,531.302917 249.403458,532.489014 251.014511,534.119934 
	C251.396698,534.506836 251.315460,535.351501 251.447388,535.985596 
	C250.971329,535.846741 250.495285,535.707886 249.599976,535.455078 
	C248.586761,535.397278 247.525497,535.634399 247.466965,535.483276 
	C245.862350,531.339844 242.874374,534.767944 240.628845,534.431274 
	C240.313217,534.383972 239.059814,537.425598 239.097778,539.016968 
	C239.141693,540.856934 240.134720,542.674316 240.385223,544.633179 
	C238.752106,543.828308 237.449417,542.891785 236.146729,541.955261 
	C235.559814,540.442139 234.972916,538.929077 234.066345,536.876709 
	C230.908981,532.675964 233.508606,531.667480 236.422302,530.642273 
	C237.493439,530.265381 238.398605,529.416809 239.379486,528.783447 
	C238.586868,527.855469 237.794250,526.927490 237.001617,525.999512 
	C237.776855,524.865051 238.552094,523.730591 239.151703,522.853149 
	C234.980225,521.955750 231.084763,521.117737 227.179108,520.277527 
	C221.966934,521.518372 222.302170,530.561401 214.555664,529.651733 
	C213.568497,529.535828 212.258224,532.171021 211.009171,533.635437 
	C214.927521,535.278076 220.787476,532.706055 221.733154,539.316467 
	C218.931915,539.023743 216.157684,538.733765 213.767029,538.483887 
	C215.891678,541.078857 218.029831,543.453613 219.777802,546.087280 
	C220.032089,546.470398 218.420837,548.091675 217.896942,548.825928 
	C215.503708,547.521790 213.557236,546.461060 211.894501,545.554993 
	C212.660889,548.596741 214.487732,551.709534 213.660385,553.741882 
	C212.853073,555.725037 209.334015,556.604309 206.802460,558.087097 
	C205.488068,555.938293 204.153610,553.756653 202.259628,550.660339 
	C201.778076,555.768921 201.420059,559.566833 201.062057,563.364746 
	C200.719269,563.419434 200.376480,563.474182 200.033691,563.528870 
	C199.098038,560.388428 198.162384,557.247925 197.226746,554.107422 
	C196.815369,554.110168 196.404007,554.112915 195.992630,554.115662 
	C195.551315,555.536682 195.110001,556.957764 194.564056,558.715759 
	C193.390518,557.399475 192.347748,556.229858 190.973404,554.688416 
	C189.728073,556.181458 188.493591,557.661499 186.880661,559.595276 
	C184.929276,554.936279 188.338257,552.333740 189.640167,548.579346 
	C190.321762,547.389587 190.666229,546.767334 191.557205,545.158020 
	C189.843124,546.059082 189.127563,546.435242 188.412018,546.811401 
	C185.851151,549.193726 183.352753,551.651184 180.667786,553.884277 
	C180.221466,554.255493 178.962036,553.649048 177.951782,552.902588 
	C177.908630,551.084900 177.502151,549.334656 178.158203,548.721741 
	C181.429871,545.665283 184.980728,542.907593 188.530273,539.964417 
	C187.683182,539.885620 186.156708,539.348511 184.863525,539.691406 
	C179.010773,541.242920 173.220352,542.978943 167.181610,540.609558 
	C168.075623,535.727173 167.806686,535.521606 162.304626,535.991394 
	C163.464386,538.544495 164.746109,541.366150 165.670853,544.749817 
	C163.368103,546.176025 161.422363,547.040161 159.487961,547.899353 
	C162.266129,553.080994 162.266129,553.080994 158.013168,552.964966 
	C155.632751,549.684082 153.497559,550.584412 151.659958,553.502014 
	C146.613358,549.390198 144.319931,543.870605 145.831665,540.417908 
	C141.646698,537.573608 137.533447,534.778076 133.406891,531.973450 
	C133.187607,532.330872 132.854340,532.620544 132.890900,532.851624 
	C133.795792,538.570190 133.501831,544.940063 136.074860,549.784668 
	C138.076248,553.553101 138.030624,555.686462 135.816635,559.099426 
	C134.677887,557.655212 133.627197,556.322632 132.501450,554.894897 
	C131.557892,555.487732 130.591248,556.095032 129.023666,557.079895 
	C127.456856,552.361755 125.971710,547.889465 124.486557,543.417236 
	C124.914597,548.485535 122.116188,550.388733 117.369400,551.395081 
	C118.258957,549.567871 119.366295,548.210876 119.514023,546.756470 
	C119.696732,544.957642 119.675354,542.622070 118.683571,541.332642 
	C116.893028,539.004639 114.316582,537.281128 111.780128,535.051880 
	C111.088768,535.996338 110.210846,537.195740 109.310608,538.425537 
	C106.244019,535.517761 106.245125,535.494202 109.457077,531.227600 
	C105.897400,529.842102 104.991646,530.481873 104.899857,534.209900 
	C104.829620,537.062378 104.568954,539.910217 104.392998,542.760132 
	C103.585884,542.794434 102.778778,542.828735 101.971664,542.863037 
	C101.671211,540.020630 101.370758,537.178162 100.984589,533.524780 
	C99.016518,534.196533 96.474449,535.064209 93.887741,536.440186 
	C93.843109,536.948364 93.716240,536.674011 93.716240,536.674011 
	C92.128937,537.047546 90.557999,537.623474 88.951004,537.753357 
	C85.368675,538.042969 84.852676,536.507141 87.319550,533.325684 
	C88.542862,532.009644 89.302963,531.124634 90.303680,530.117798 
	C90.623459,529.688293 90.702614,529.380615 90.749878,528.743408 
	C89.347961,527.227417 87.977936,526.041016 86.398895,524.530762 
	C85.518005,523.160522 84.846123,522.114075 84.503952,520.838745 
	C88.119652,519.026123 90.856216,517.248169 87.257332,512.804016 
	C85.313126,515.649841 83.533859,518.254211 81.471542,520.869629 
	C80.815193,520.847656 80.441910,520.814697 79.967941,520.392517 
	C77.289421,519.577637 74.711594,519.151978 72.018326,518.455200 
	C71.474449,517.781860 71.046013,517.379578 70.617584,516.977234 
	C71.983223,515.679321 73.409058,514.438049 74.697716,513.067749 
	C76.011360,511.670837 77.190125,510.147095 78.413544,508.695984 
	C76.148026,506.490967 74.030609,504.430115 71.235695,501.709839 
	C71.786308,500.905518 72.784904,499.446747 74.362000,497.538422 
	C76.446251,496.863800 78.003380,496.276367 79.448219,496.481140 
	C83.926048,497.115875 88.361183,498.051849 92.812881,498.870911 
	C93.021667,498.465424 93.230446,498.059937 93.439224,497.654449 
	C91.874802,496.008453 89.618782,494.623932 88.878746,492.666290 
	C86.853722,487.309357 80.424316,489.378113 77.685112,485.497040 
	C77.583107,485.352509 76.709694,485.585144 76.322968,485.837189 
	C74.429008,487.071686 72.578209,488.372375 70.458038,489.823608 
	C70.567947,490.445129 70.794586,491.726685 71.021225,493.008270 
	C67.682838,492.664459 63.823673,493.414001 62.766304,488.520599 
	C60.418026,491.629974 60.418026,491.629974 53.334904,486.632416 
	C56.386528,482.135254 56.386528,482.135254 49.027069,479.006714 
	C49.503468,477.705566 49.982529,476.397156 50.620140,474.655731 
	C52.280785,474.950317 53.957439,475.247742 56.458061,475.691345 
	C55.554020,473.639862 54.837105,472.013031 54.087120,470.311157 
	C52.380642,471.096649 51.099384,471.880310 49.708046,472.291321 
	C45.116493,473.647614 41.449261,470.790100 41.342731,466.040863 
	C41.327301,465.353088 40.454044,464.684570 39.550800,463.979553 
	C39.135044,463.247803 39.146244,462.543640 39.607597,461.531738 
	C43.353241,461.714691 46.760471,463.576477 49.430908,460.666260 
	C46.181332,458.752808 42.789421,456.755524 39.293175,454.372620 
	C39.073505,449.926270 36.585247,449.252930 34.005470,449.899933 
	C33.342178,448.347900 32.817089,447.119263 32.292000,445.890594 
	C34.034073,438.279419 27.408646,433.108490 25.759562,424.891998 
	C28.214727,426.522919 29.489454,427.369720 30.636923,428.131958 
	C31.060123,424.946503 31.464533,421.902466 31.919937,418.474579 
	C38.243694,422.925354 35.936451,416.648621 36.580544,416.013489 
	C39.839016,415.859802 42.148392,415.750885 45.973576,415.570465 
	C42.453457,411.598969 39.539680,408.311554 35.931488,404.240692 
	C39.793961,404.678680 43.356308,406.168274 43.957794,401.356262 
	C43.989960,401.098907 45.448444,400.648132 45.898178,400.900879 
	C46.590401,401.289886 47.433239,402.213531 47.429054,402.905579 
	C47.406166,406.688873 49.682617,407.532593 53.281116,407.939850 
	C53.895569,409.808289 54.037174,411.226044 54.210972,412.966156 
	C59.044029,410.589813 55.595497,408.644684 54.329872,406.676392 
	C54.949669,405.778900 55.521919,404.843140 56.203804,403.995605 
	C56.785275,403.272858 57.492786,402.651520 58.440037,401.457886 
	C60.117882,400.930450 61.500229,400.930450 63.227753,400.930450 
	C62.719990,402.745392 62.335690,404.119049 61.935596,405.549133 
	C63.877827,406.018402 65.727905,406.465393 67.801033,406.966278 
	C67.148895,408.709534 66.657455,410.023193 66.166023,411.336884 
	C66.482735,411.680176 66.799446,412.023438 67.116158,412.366730 
	C68.388481,411.418091 69.660805,410.469482 71.069084,409.419464 
	C71.302460,410.346985 71.626495,411.634918 71.980667,413.042572 
	C72.941055,412.477051 73.746193,412.002930 74.592171,411.504761 
	C75.108780,413.124969 75.593864,414.646362 76.156403,416.410614 
	C82.867828,406.797668 83.190590,400.346008 77.578400,394.139862 
	C72.340820,395.452789 68.360924,402.482483 61.622765,397.357605 
	C61.326054,398.132874 60.997555,398.991211 61.025234,398.918884 
	C59.805477,398.809784 58.877361,398.726746 57.949245,398.643707 
	C53.801865,394.895416 55.239697,389.980316 54.898983,385.090820 
	C57.336773,384.739563 59.549774,384.420746 61.762779,384.101898 
	C61.802475,383.771240 61.842171,383.440582 61.881863,383.109924 
	C59.648155,382.746826 57.414444,382.383759 54.972771,381.986877 
	C54.972771,379.516327 54.708038,377.008240 55.078579,374.597870 
	C55.279716,373.289429 56.328503,371.857178 57.405174,370.990295 
	C59.657787,369.176636 59.028179,365.391663 55.258591,362.886963 
	C54.668072,362.823975 54.292183,362.910034 54.187897,362.537964 
	C53.875477,361.154938 53.667343,360.144012 53.459213,359.133057 
	C52.647827,359.491638 51.836433,359.850189 50.641987,360.225586 
	C46.265587,360.601135 48.404285,364.244354 47.140205,366.064941 
	C47.140205,366.064941 47.035786,366.077423 46.655643,366.162628 
	C43.260147,364.693787 41.252762,360.969513 37.053436,361.964691 
	C37.008259,361.639618 36.963085,361.314545 36.917908,360.989471 
	C39.659801,358.324829 42.401699,355.660156 45.143597,352.995514 
	C44.898178,352.512573 44.652763,352.029633 44.407349,351.546692 
	C42.147350,351.546692 39.887356,351.546692 37.161255,351.546692 
	C35.890961,350.657684 37.916275,345.217224 31.972891,347.722198 
	C31.464302,344.975800 30.933422,342.109070 30.375158,339.094421 
	C29.888502,339.480804 29.181992,340.041718 27.921715,340.887756 
	C26.948729,341.046173 26.529510,340.919434 26.110287,340.792664 
	C28.024155,336.762360 29.938026,332.732086 31.783409,328.349274 
	C31.782787,327.246796 31.850657,326.496796 31.932938,325.008148 
	C31.950802,323.512817 31.954258,322.756134 31.957714,321.999481 
M223.136505,369.620972 
	C223.690063,369.543365 224.243622,369.465790 225.047516,369.711090 
	C225.457336,370.026459 225.867172,370.341827 226.591110,371.190186 
	C227.451691,370.815613 228.312271,370.441040 229.887497,369.924469 
	C232.065872,370.236267 234.569962,371.361694 236.339859,370.653137 
	C238.533600,369.774872 240.119019,367.377106 242.270447,365.350037 
	C242.727676,368.639221 244.300354,369.334381 246.855362,367.042480 
	C246.946091,366.961090 247.736053,367.659210 248.302536,368.644623 
	C248.986206,368.474884 249.669876,368.305145 251.046417,367.949982 
	C252.863892,369.439606 254.681366,370.929260 256.498840,372.418884 
	C256.953400,372.204193 257.407928,371.989471 257.862488,371.774750 
	C257.560394,369.516846 257.258331,367.258911 257.047394,364.241913 
	C256.364410,363.853333 255.681412,363.464752 254.407562,362.610901 
	C253.060516,362.859375 251.713486,363.107819 249.002136,363.607941 
	C248.098068,361.455444 246.939133,358.696136 246.390610,355.551056 
	C247.403976,353.207764 248.417343,350.864471 249.430710,348.521179 
	C248.954865,348.302277 248.479034,348.083344 248.003189,347.864410 
	C246.731461,350.253082 245.459732,352.641754 243.816727,355.679199 
	C242.373749,357.642181 241.328430,360.491852 239.394165,361.359375 
	C236.528259,362.644623 234.194214,361.126923 233.438873,357.537292 
	C233.279282,356.778900 230.762863,356.587982 229.393127,355.995209 
	C227.537552,355.192230 225.740631,354.253723 223.918564,353.373352 
	C224.022690,352.920563 224.126816,352.467743 224.230942,352.014954 
	C222.249847,353.066345 220.268768,354.117706 217.784332,354.751312 
	C216.521957,354.485718 215.259567,354.220123 213.419678,353.592316 
	C212.365601,353.176331 211.311523,352.760315 209.955490,351.986420 
	C209.676117,351.808289 209.375046,351.756561 208.727020,351.325745 
	C208.151138,351.219727 207.575241,351.113708 206.390594,350.629730 
	C204.579605,349.739014 202.768600,348.848297 200.384521,347.675720 
	C200.627411,351.126831 200.834061,354.062927 200.876328,357.845428 
	C200.949722,359.562103 201.023117,361.278809 200.905579,363.830475 
	C201.282471,366.546448 201.659348,369.262421 202.008316,371.777130 
	C203.865173,371.268433 204.736542,371.029694 205.546570,371.518677 
	C206.890015,371.086243 208.233475,370.653839 210.032303,369.739258 
	C211.476837,369.170868 212.921371,368.602448 213.990967,368.592194 
	C214.039291,369.023132 214.087631,369.454102 214.135956,369.885040 
	C214.472931,369.727692 214.809906,369.570374 215.756989,369.146027 
	C216.876022,368.536774 217.995056,367.927490 218.747955,367.517578 
	C219.644485,368.253723 220.395554,368.870453 221.764740,369.139832 
	C222.187088,369.052765 222.609436,368.965729 222.998184,368.942657 
	C222.998184,368.942657 223.064911,368.970428 223.136505,369.620972 
M640.293701,401.741852 
	C640.393982,402.329437 640.494263,402.917023 640.731079,404.590424 
	C643.910767,405.847351 643.185059,403.698944 643.772217,402.043030 
	C644.781250,401.534454 645.790283,401.025848 646.799255,400.517242 
	C646.247131,400.053741 645.695068,399.590271 645.143005,399.126801 
	C644.426819,400.088837 643.710693,401.050873 642.327820,401.984772 
	C641.882935,401.982758 641.437988,401.980743 640.293701,401.741852 
M153.736801,456.942810 
	C156.629807,453.773804 160.695236,455.224579 164.343109,454.746002 
	C161.587631,448.102478 156.693665,447.170593 152.070160,451.680450 
	C152.263214,453.457062 152.429977,454.991791 152.253281,456.901917 
	C152.289825,457.148254 152.326355,457.394562 152.362885,457.640900 
	C152.582642,457.435486 152.802399,457.230072 153.736801,456.942810 
M705.787781,395.980438 
	C709.632202,394.605743 713.476624,393.231079 717.090332,391.938873 
	C715.336853,389.552643 714.602478,387.716949 713.257324,386.943665 
	C711.727661,386.064301 709.652344,386.134155 707.814209,385.791382 
	C707.687622,386.219360 707.561035,386.647339 707.434448,387.075317 
	C708.212402,388.190338 708.990295,389.305359 709.580750,390.151581 
	C707.791321,392.136047 706.234802,393.862183 704.289307,395.918549 
	C704.315369,396.170074 704.341431,396.421570 704.367554,396.673096 
	C704.580017,396.450684 704.792480,396.228271 705.787781,395.980438 
M379.205627,476.550476 
	C381.710205,473.461914 382.864838,470.129059 381.135864,465.665222 
	C377.078522,468.179016 373.342316,470.493835 369.606079,472.808685 
	C369.794617,473.379303 369.983185,473.949951 370.171722,474.520599 
	C372.328217,474.152496 374.484711,473.784363 377.204376,473.320099 
	C377.223480,473.399689 377.508789,474.588593 377.195435,476.013214 
	C376.793304,476.567474 376.391205,477.121765 375.989075,477.676056 
	C376.155823,477.851440 376.322571,478.026794 376.489319,478.202148 
	C377.176514,477.772614 377.863708,477.343079 379.205627,476.550476 
M242.283630,433.696045 
	C241.817108,432.127380 241.350571,430.558746 240.638580,428.164825 
	C240.372620,428.126862 238.510635,427.257294 237.579208,427.850006 
	C235.436356,429.213654 233.746170,431.288605 231.872269,433.074860 
	C233.280334,433.970001 234.593399,435.343567 236.119064,435.646606 
	C238.330109,436.085724 240.694839,435.750946 243.634933,436.082153 
	C249.734955,439.213684 257.019470,441.121338 257.569550,450.059418 
	C257.522217,444.899261 257.290894,440.013092 256.585602,435.196289 
	C256.424683,434.097290 254.778824,432.753021 253.550934,432.367767 
	C250.871536,431.527130 248.021469,431.230408 244.106537,430.499664 
	C245.648102,431.831390 246.315552,432.407959 247.675659,433.582947 
	C245.507111,433.811279 244.251862,433.943451 242.283630,433.696045 
M344.549774,371.337097 
	C344.983887,371.492065 345.417999,371.647034 346.248901,372.326935 
	C349.454926,373.089935 352.660980,373.852966 356.035919,374.656158 
	C356.322754,372.165131 356.620728,369.577606 357.153046,366.156799 
	C358.597839,354.952271 359.797455,343.813354 358.340057,332.421112 
	C357.481171,325.707306 355.186035,320.069550 350.882568,314.462341 
	C345.372467,319.303925 350.870544,324.085205 349.850067,329.312561 
	C345.934692,329.541321 341.370056,329.714691 336.824768,330.110291 
	C334.309509,330.329193 332.154358,330.960114 329.862976,328.589691 
	C328.737091,327.424957 324.675720,327.221344 323.597137,328.275482 
	C321.308197,330.512604 320.103058,333.858704 318.306641,337.007599 
	C317.406189,332.405975 317.406189,332.405975 308.381409,334.739410 
	C309.101410,337.935669 309.823914,341.142975 310.556122,344.393494 
	C307.753601,344.083679 304.629669,343.738373 300.351776,343.265472 
	C299.686249,348.954651 298.666260,354.735809 298.406250,360.550934 
	C297.961334,370.500946 297.693573,369.883789 306.707855,372.228638 
	C307.905518,372.540192 308.996643,373.261230 310.122986,373.786072 
	C312.896576,368.708771 319.724701,367.937653 325.313171,372.018585 
	C325.981476,370.032623 326.640686,368.073639 327.328247,366.030426 
	C333.213715,367.595337 338.790039,369.078033 344.420197,370.589264 
	C344.420197,370.589264 344.478302,370.607635 344.549774,371.337097 
M91.974236,422.588562 
	C91.515137,423.473907 90.507515,424.991455 90.683853,425.144440 
	C92.071640,426.348572 94.765976,428.410614 95.053772,428.132751 
	C96.836288,426.411621 98.093567,424.146545 99.558769,422.013275 
	C96.577019,422.013275 94.240875,422.013275 91.285835,421.378571 
	C93.386047,420.250916 95.871201,419.519958 97.516518,417.923492 
	C103.147484,412.459900 99.340897,402.876495 90.592888,399.969421 
	C89.030167,404.165375 87.420418,408.342163 85.916550,412.556732 
	C83.074379,420.521851 84.638809,422.892365 91.974236,422.588562 
M283.152130,415.673859 
	C283.196716,416.102661 283.241333,416.531433 283.046082,417.726929 
	C283.046082,419.256317 283.046082,420.785675 283.046082,422.315063 
	C283.352661,422.353394 283.659241,422.391724 283.965820,422.430054 
	C284.367737,420.647919 284.769623,418.865753 285.799469,417.266174 
	C287.483307,421.332062 288.557678,415.584869 290.177734,417.810883 
	C290.480347,419.573792 290.782990,421.336700 291.161346,423.540558 
	C293.987946,421.700958 298.289795,421.746765 295.678558,416.867798 
	C293.828918,416.950653 291.894226,417.037292 289.284698,416.533600 
	C290.409180,415.643341 291.764160,413.818665 292.617218,414.029083 
	C295.837891,414.823456 296.114319,413.146576 295.832581,410.884155 
	C295.245697,406.170715 294.514618,401.475250 293.916138,397.285522 
	C292.417816,397.038910 291.320587,397.069519 290.411102,396.671326 
	C286.877625,395.124268 281.433777,396.134766 279.399597,398.795410 
	C279.399597,398.795410 278.995941,399.051117 278.678711,398.488922 
	C277.508453,397.962250 276.371216,397.107971 275.160187,396.985962 
	C273.356537,396.804230 271.500824,397.139526 268.288208,397.341492 
	C265.409790,399.552490 262.201019,409.917786 263.713348,415.310120 
	C264.469543,413.859070 265.225769,412.408051 266.620270,410.836090 
	C268.068390,410.680695 269.516510,410.525299 272.363983,410.219727 
	C270.323700,412.975464 268.996735,414.767761 266.712524,417.852966 
	C269.836182,417.608429 272.218384,417.421936 274.967133,417.206726 
	C274.417145,418.971771 273.831909,420.849915 273.220734,422.811310 
	C280.032715,422.298859 279.926544,416.540375 281.402344,411.169525 
	C282.421570,413.283051 282.844055,414.159058 283.152130,415.673859 
M290.783325,352.499634 
	C290.287018,351.971130 289.790710,351.442596 289.082062,350.260529 
	C287.238251,349.682465 285.394470,349.104401 283.293091,348.445557 
	C283.086334,350.769623 282.959381,352.196503 282.209869,353.928711 
	C281.790314,354.094421 281.370789,354.260132 280.462067,353.754425 
	C280.476440,348.894623 279.226349,344.967896 273.312775,344.015808 
	C273.844482,346.229187 274.294617,348.102875 274.963074,350.885437 
	C273.222900,349.977081 272.542267,349.356537 271.819427,349.302765 
	C270.535614,349.207245 269.226196,349.455353 267.927490,349.559662 
	C268.466217,350.500336 269.050903,351.418182 269.532043,352.387451 
	C270.135101,353.602356 270.653198,354.859436 271.685547,357.164764 
	C268.126770,356.233582 265.768280,355.616455 262.806488,354.841461 
	C263.831543,359.773071 264.748474,364.184479 265.697693,368.751160 
	C268.344513,368.354858 270.660309,368.008087 273.700012,367.885071 
	C275.094360,371.571899 277.847137,368.762360 280.057526,369.854675 
	C284.620636,370.298340 289.183777,370.742035 294.237885,371.233459 
	C294.718811,364.911102 295.132080,359.478485 295.624115,353.498322 
	C294.771729,353.404846 293.919312,353.311340 292.337341,353.353699 
	C291.858276,353.250610 291.379211,353.147522 290.783325,352.499634 
M135.956528,359.135437 
	C135.308167,357.900970 134.659805,356.666534 133.952682,355.320190 
	C134.888809,354.180206 135.850342,353.009308 136.811859,351.838409 
	C136.415497,351.425385 136.019119,351.012390 135.622757,350.599365 
	C134.113068,351.890442 132.603378,353.181488 130.902222,354.636292 
	C130.134033,354.142914 129.180740,353.530670 128.114975,352.207977 
	C125.996742,350.186005 124.192955,347.514069 121.683777,346.300140 
	C118.244873,344.636322 116.166183,347.715637 114.115883,350.041016 
	C113.721916,350.487823 112.936371,350.635590 112.301575,350.816315 
	C108.262978,351.966278 106.000618,354.752075 104.508408,358.572021 
	C103.247536,361.799805 101.296295,364.761047 100.082458,368.002014 
	C99.766327,368.846100 101.237389,371.357086 101.592209,371.298981 
	C104.759987,370.780121 107.861542,369.856995 111.291420,369.428467 
	C111.907547,369.535156 112.523682,369.641876 113.884529,370.004120 
	C114.401215,369.938202 114.917892,369.872253 116.013054,370.053345 
	C119.009941,370.680420 122.006821,371.307495 125.625031,372.378662 
	C127.731232,373.577515 129.603729,373.874908 130.774582,371.134003 
	C132.405914,367.315186 134.065903,363.508667 135.956528,359.135437 
M237.591431,405.483002 
	C239.054977,406.320312 240.518524,407.157654 241.286880,407.988983 
	C239.920746,407.924622 238.554611,407.860291 236.628082,407.769562 
	C237.175247,409.625946 237.529373,410.827423 237.801987,412.787048 
	C238.397400,413.835419 238.992813,414.883820 239.588226,415.932190 
	C242.683945,412.036285 244.405807,416.534851 246.958725,417.687469 
	C247.449493,417.988098 247.940262,418.288727 248.431046,418.589355 
	C248.539795,418.050934 248.648560,417.512543 248.781952,416.280701 
	C248.783768,412.804871 243.559814,410.372314 247.369949,405.959930 
	C249.407242,404.025360 251.563049,399.484894 252.828964,406.052917 
	C254.431946,405.094757 255.838806,404.253815 257.725891,403.125824 
	C257.605286,400.861298 257.452698,397.995544 257.272614,394.614105 
	C254.052567,396.176727 251.601349,397.366241 249.150131,398.555725 
	C248.886917,398.235321 248.623718,397.914886 248.360504,397.594482 
	C247.912308,398.938019 247.464111,400.281586 246.966217,401.774109 
	C245.562607,400.209503 244.377411,398.888367 242.870697,397.208832 
	C242.359222,399.074921 242.081909,400.086670 241.778870,401.192322 
	C240.929932,400.231934 240.284042,399.501251 239.232025,398.014984 
	C235.038528,394.257141 230.339462,396.154205 225.754944,396.818695 
	C224.020721,397.070038 222.293304,397.368317 219.789536,397.768921 
	C219.868195,397.462189 219.599228,398.510895 219.245956,399.888336 
	C217.409210,398.762451 215.807053,397.780396 213.985229,396.663666 
	C213.985229,397.934418 213.985229,398.998138 213.985229,399.887054 
	C210.774979,399.478943 209.440643,393.595184 204.916443,397.168732 
	C204.401627,396.590729 203.701599,395.804810 202.016815,393.913239 
	C199.760101,403.118500 200.970062,411.288239 200.557907,419.081970 
	C205.551178,416.960999 209.972412,414.869965 214.555038,413.229980 
	C216.716248,412.456543 219.142517,411.013702 221.473114,413.796936 
	C222.190674,414.653809 225.556427,415.727997 225.652710,411.715210 
	C226.447998,411.185791 227.243301,410.656372 228.624527,410.178619 
	C229.517075,410.326477 230.409622,410.474365 232.006516,410.242310 
	C232.612778,409.695160 233.254608,409.182037 233.817657,408.593567 
	C234.894196,407.468445 235.925858,406.300385 237.591431,405.483002 
M357.973328,406.244385 
	C357.572296,403.483185 357.171295,400.721954 356.827057,397.094421 
	C356.475189,395.689148 356.123352,394.283875 355.691132,392.557648 
	C351.311890,395.224945 344.919556,391.675354 341.993317,398.183044 
	C340.869781,397.274323 339.811066,396.418030 339.772369,396.386749 
	C337.332581,397.505646 335.605835,398.477112 333.760834,399.095764 
	C331.695557,399.788361 329.523102,400.161316 327.242828,400.710510 
	C326.607422,398.866302 325.937073,396.920715 325.215149,394.825348 
	C321.220459,398.756042 313.360229,397.738129 309.681000,393.438660 
	C308.280182,393.834778 307.060516,394.198242 305.830933,394.524292 
	C298.305603,396.519653 297.724915,397.458710 298.460693,405.224365 
	C298.851410,409.348022 298.766205,413.520691 299.244812,417.630585 
	C299.498138,419.806244 300.498413,421.894928 301.009735,423.535858 
	C304.936310,423.218536 308.068298,422.965424 312.377075,422.617218 
	C310.472015,424.330750 309.365051,425.326447 308.703979,425.921082 
	C308.703979,428.566711 308.703979,430.781708 308.703979,432.246643 
	C310.243011,433.144745 311.619171,434.005005 313.047455,434.767670 
	C315.092590,435.859711 317.149261,436.884644 317.571960,433.177307 
	C317.683319,432.200684 318.036041,431.251556 318.144958,430.818481 
	C319.877350,432.597443 322.039215,434.018555 323.056885,436.021088 
	C325.526947,440.881653 327.022949,441.256775 331.268951,437.569366 
	C332.083008,436.862488 333.625275,436.686157 334.801758,436.757446 
	C340.187592,437.083740 345.562836,437.585144 350.660156,438.714111 
	C349.693817,442.245850 348.727448,445.777588 347.715149,449.477203 
	C348.682678,450.394562 349.706360,451.365143 351.703033,453.258209 
	C353.842468,448.033325 355.703522,443.488281 357.838959,438.168365 
	C358.830811,427.789215 359.982422,417.410095 357.973328,406.244385 
M160.371353,353.851959 
	C159.763290,354.631531 159.220703,355.475494 158.532104,356.175873 
	C157.454361,357.272064 155.584610,359.359741 155.248779,359.145813 
	C151.153885,356.537750 148.924591,360.900238 145.580246,361.018677 
	C145.919174,364.417236 145.933640,368.267334 150.165131,367.318268 
	C154.188217,366.415863 156.148849,367.967651 157.867615,371.262878 
	C159.190155,370.124054 160.245834,369.215027 161.301514,368.306000 
	C161.193222,368.855713 161.084930,369.405457 160.976654,369.955170 
	C164.801117,371.434235 168.625580,372.913300 173.853516,374.935150 
	C175.241974,379.438721 181.048950,376.220032 183.849152,377.167877 
	C185.940369,375.478302 187.905823,372.927460 188.885361,373.262146 
	C193.658768,374.893158 194.397400,371.223877 194.555222,368.701111 
	C195.005951,361.497040 194.713699,354.246521 194.713699,346.424255 
	C185.363693,352.986389 175.598740,356.025726 164.566376,353.095215 
	C163.590073,352.835907 162.350082,353.569244 160.371353,353.851959 
M176.707474,391.928802 
	C174.871384,392.890930 173.035294,393.853058 170.932938,394.954712 
	C167.786621,392.285828 162.499786,393.771545 161.354309,398.599457 
	C160.029907,397.491577 158.828308,396.486450 157.344376,395.245148 
	C156.692139,402.989380 149.996918,398.094330 146.488037,400.667480 
	C146.167084,402.240509 145.811264,403.984436 145.427567,405.864960 
	C149.184692,406.550385 151.949219,409.882843 156.028244,408.181854 
	C156.557770,407.961029 158.432037,409.218445 158.492355,409.897034 
	C158.947403,415.016083 163.116302,414.132751 165.662323,413.623993 
	C172.582642,412.241028 179.097290,412.684662 185.454193,415.633240 
	C188.627625,417.105164 191.744095,418.699890 195.324280,420.453613 
	C193.644257,411.176453 198.045364,401.371460 191.693298,392.890839 
	C188.268234,394.181061 182.163620,391.722412 179.820892,388.489655 
	C179.047333,389.538696 178.252136,390.617065 176.707474,391.928802 
M134.955734,409.606384 
	C136.190384,402.529205 133.248322,397.284576 128.876144,393.743317 
	C122.037148,395.267151 116.156006,396.577545 110.164452,397.912567 
	C108.197861,395.128876 101.957916,394.758911 99.305466,397.292480 
	C100.823730,400.321320 102.750244,403.125183 103.668770,406.227478 
	C105.262154,411.609131 108.075844,415.444733 113.685379,416.902100 
	C114.418945,417.092682 115.233070,417.502197 115.710487,418.064514 
	C118.990944,421.928345 121.817467,422.034210 124.840530,418.360474 
	C126.787651,415.994202 128.798843,413.680695 130.972839,411.117767 
	C131.921555,412.459045 132.722641,413.591614 133.799271,415.113739 
	C133.987793,413.115204 134.132645,411.579590 134.955734,409.606384 
M290.500183,382.697113 
	C221.458481,382.697113 152.416763,382.697113 83.375053,382.697113 
	C83.376671,383.056702 83.378281,383.416321 83.379890,383.775909 
	C232.484421,383.775909 381.588959,383.775909 530.693481,383.775909 
	C530.693665,383.416290 530.693787,383.056671 530.693970,382.697052 
	C450.962708,382.697052 371.231445,382.697052 290.500183,382.697113 
M66.501060,356.633331 
	C68.759193,361.441437 64.457581,360.544495 62.661339,361.160492 
	C62.147385,364.335388 61.738449,366.861511 61.329514,369.387665 
	C61.659393,369.450775 61.989273,369.513885 62.319153,369.576996 
	C63.335152,368.295013 64.351151,367.013031 64.908943,366.309204 
	C71.599556,367.496216 75.488808,376.353760 83.410248,369.690643 
	C81.456528,363.738586 79.313293,357.209198 77.170059,350.679779 
	C76.731384,350.794250 76.292717,350.908722 75.854042,351.023163 
	C75.435410,352.539886 75.016769,354.056610 74.598137,355.573334 
	C74.216927,355.307037 73.835716,355.040741 73.454506,354.774445 
	C72.369484,355.647186 71.284462,356.519897 71.247833,356.549377 
	C69.247261,356.269653 67.932266,356.085815 66.501060,356.633331 
M100.176361,354.534943 
	C99.995918,346.600769 91.935623,347.747070 87.447990,342.836365 
	C86.268387,345.743225 84.316422,348.121918 84.759766,349.905060 
	C86.242790,355.869934 88.582413,361.621857 90.653862,367.629028 
	C96.257141,364.684784 99.164543,360.736664 100.176361,354.534943 
M659.001709,395.928772 
	C658.236816,395.687408 657.471985,395.446045 657.029785,395.306488 
	C656.367798,397.368164 655.730713,399.289032 655.134583,401.222534 
	C654.017456,404.846283 653.839050,408.615631 656.826538,411.211548 
	C658.539917,412.700287 661.312195,413.267334 663.688965,413.538757 
	C664.552551,413.637390 665.949341,411.822998 666.562561,410.608612 
	C667.217896,409.310669 667.720459,407.588501 667.434570,406.231720 
	C666.759705,403.028992 665.862976,399.791290 664.419678,396.883636 
	C664.003479,396.045227 661.422485,396.281372 659.001709,395.928772 
M102.688843,466.499146 
	C101.452301,466.755463 100.215759,467.011810 99.323158,467.196838 
	C99.561806,469.386749 99.772209,471.272125 99.971802,473.158630 
	C100.375504,476.974243 101.581177,480.600647 105.415710,481.921539 
	C107.498596,482.638977 111.622734,482.598755 112.177032,481.528442 
	C113.395714,479.175110 113.440285,475.875214 113.031921,473.098785 
	C112.448059,469.129242 106.311790,465.050598 102.688843,466.499146 
M146.557587,497.666687 
	C143.689117,497.847229 140.820663,498.027771 137.998734,498.205383 
	C138.393051,500.467804 139.037689,502.192139 138.917618,503.861481 
	C138.604050,508.220398 140.500244,511.555695 144.076996,513.319580 
	C145.946304,514.241394 149.007172,513.929077 150.972855,512.998108 
	C152.031006,512.496948 152.083923,509.531708 152.292053,507.645325 
	C152.792313,503.110962 149.695786,500.740204 146.557587,497.666687 
M154.701050,436.061218 
	C148.500565,437.917480 149.942474,442.340179 151.547852,448.077789 
	C159.552094,442.576721 165.958588,433.941132 177.071548,436.021271 
	C174.870956,434.222504 173.047852,432.979980 171.148041,431.868591 
	C169.534500,430.924683 167.410400,429.038055 166.251602,429.485138 
	C163.221161,430.654236 160.595535,432.872650 157.808533,434.672699 
	C157.984070,434.972870 158.159607,435.273041 158.335144,435.573181 
	C159.288177,435.490570 160.241226,435.407959 161.194260,435.325348 
	C161.345139,435.641663 161.496017,435.957977 161.646896,436.274292 
	C160.144958,437.366058 158.643021,438.457825 157.141068,439.549591 
	C156.560150,438.526459 155.979233,437.503357 154.701050,436.061218 
M745.302063,402.021790 
	C747.341797,403.749695 749.381470,405.477631 752.193542,407.859833 
	C751.671387,404.896393 751.006897,403.125549 751.123474,401.407654 
	C751.457092,396.487915 749.847046,394.330200 745.013000,393.905518 
	C743.556396,393.777527 742.092957,393.726776 740.154907,393.612488 
	C740.827820,394.706238 741.301453,395.476074 741.862122,396.387421 
	C735.908569,397.185516 735.247559,396.521057 736.533020,391.147980 
	C735.060974,390.930786 733.175415,390.041962 732.243408,390.639771 
	C730.186096,391.959412 728.609131,394.027832 726.836182,395.790771 
	C728.211609,396.673218 729.478271,397.912750 730.982910,398.371033 
	C735.449646,399.731506 740.010132,400.784241 745.302063,402.021790 
M102.875206,423.539337 
	C103.148033,427.552277 105.071815,430.205109 109.121834,431.317932 
	C109.781837,428.337708 109.829323,425.235962 111.150078,422.834473 
	C113.143089,419.210632 110.572449,418.198822 108.585159,418.597656 
	C106.466080,419.022888 104.715149,421.282593 102.875206,423.539337 
M581.499817,384.217865 
	C597.858582,384.217865 614.217285,384.217865 630.576050,384.217865 
	C630.572388,383.876892 630.568665,383.535889 630.565002,383.194916 
	C604.468079,383.194916 578.371216,383.194916 552.274292,383.194916 
	C552.271973,383.534668 552.269592,383.874451 552.267273,384.214203 
	C561.678101,384.214203 571.088989,384.214203 581.499817,384.217865 
M716.159546,402.351379 
	C715.605896,401.941559 714.791199,401.054688 714.537659,401.193390 
	C710.725037,403.279572 706.986267,405.500763 703.230164,407.690186 
	C703.409058,408.243530 703.587952,408.796875 703.766846,409.350189 
	C706.191040,408.942261 708.615234,408.534363 711.627991,408.027374 
	C711.464355,409.058960 711.177979,410.864624 710.842712,412.978394 
	C715.468750,411.103271 715.941040,407.109985 716.159546,402.351379 
M412.060455,417.714508 
	C410.672882,418.577820 409.285309,419.441132 407.897736,420.304413 
	C408.018219,420.791260 408.138702,421.278076 408.259186,421.764893 
	C410.688782,421.427673 413.118408,421.090485 416.176422,420.666046 
	C416.235382,421.169098 416.430115,422.829926 416.619629,424.446533 
	C421.493378,420.559540 422.287384,417.728027 419.536591,413.514343 
	C417.233124,414.720642 414.911530,415.936401 412.060455,417.714508 
M147.175491,470.766907 
	C147.770966,470.044128 148.366455,469.321350 149.157806,468.360809 
	C145.140686,468.712311 144.492447,460.515503 139.077789,465.086761 
	C140.101639,466.228271 140.929535,467.151306 141.720322,468.032959 
	C139.545258,470.216278 137.597672,472.171265 134.858536,474.920807 
	C139.747849,473.336517 143.127457,472.241394 147.175491,470.766907 
M95.666985,444.033722 
	C90.031830,438.664337 88.195198,438.439606 83.413193,442.536469 
	C83.841995,444.304535 84.270798,446.072601 84.491699,446.983429 
	C87.432121,446.691467 90.257835,446.497925 93.051277,446.085693 
	C94.009323,445.944305 94.886642,445.255798 95.666985,444.033722 
M367.625732,428.696442 
	C366.494629,427.656952 365.363525,426.617493 363.716583,425.103973 
	C362.983002,429.062134 362.401367,432.200287 361.819733,435.338409 
	C366.105499,428.267853 369.832031,439.434204 373.949036,435.316986 
	C371.980072,433.240448 370.067871,431.223816 367.625732,428.696442 
M680.495361,385.897583 
	C674.317078,386.653198 674.287292,386.676453 673.583435,392.664185 
	C680.536011,385.363861 687.757812,391.100037 694.732239,390.450470 
	C694.834839,389.996246 694.937500,389.542023 695.040100,389.087799 
	C690.463989,388.051727 685.887878,387.015656 680.495361,385.897583 
M164.903946,499.348145 
	C167.820877,499.190155 171.077637,502.438538 173.603073,498.868927 
	C167.560303,492.999847 160.650391,496.771698 154.206665,495.498810 
	C154.146988,495.989227 154.087326,496.479614 154.027649,496.970001 
	C157.381653,497.735901 160.735641,498.501770 164.903946,499.348145 
M396.162567,423.290070 
	C394.925873,422.172668 393.796539,420.877075 392.395325,420.032684 
	C391.892395,419.729614 390.734009,420.514252 389.483246,420.933777 
	C390.530243,422.274536 391.288574,423.245636 392.671143,425.016144 
	C390.769257,426.545410 388.879944,428.064575 386.990631,429.583740 
	C391.270599,428.074036 396.902313,429.883209 399.715118,424.351654 
	C398.413300,424.114624 397.607452,423.967926 396.162567,423.290070 
M77.027863,421.679413 
	C70.738495,421.663879 70.618141,421.812836 72.776443,426.290466 
	C73.121056,427.005371 73.057457,427.914276 73.198128,428.730804 
	C73.468307,430.299103 73.749626,431.865509 74.026321,433.432678 
	C74.249641,433.424713 74.472961,433.416748 74.696281,433.408752 
	C75.452011,429.778015 76.207733,426.147278 77.027863,421.679413 
M114.373352,508.992188 
	C115.284737,507.273682 116.196129,505.555176 117.308357,503.457977 
	C115.534508,502.588776 114.183701,501.926849 112.588341,501.145111 
	C111.525375,504.674774 110.647415,507.590118 109.573204,511.157135 
	C111.446411,510.411499 112.624222,509.942657 114.373352,508.992188 
M306.961243,444.208466 
	C307.693207,444.719177 308.425140,445.229919 309.157104,445.740662 
	C309.609619,445.380554 310.062103,445.020477 310.514618,444.660400 
	C308.248199,441.293701 305.981781,437.926971 303.547729,434.311279 
	C300.362122,437.465942 300.457489,439.097107 303.356018,440.598602 
	C304.594971,441.240387 305.458374,442.607178 306.961243,444.208466 
M219.316177,503.161072 
	C211.594360,502.299774 209.928009,502.703033 208.846283,504.866211 
	C213.348358,505.340027 218.218597,505.852570 223.959183,506.456726 
	C224.103958,506.237915 225.048630,504.810089 226.164230,503.123932 
	C223.819824,503.123932 222.039444,503.123932 219.316177,503.161072 
M115.813286,427.334595 
	C116.147499,428.488586 116.481712,429.642578 116.815926,430.796570 
	C118.119476,429.890350 119.423035,428.984131 121.011574,427.879791 
	C121.597595,428.660034 122.394821,429.721497 123.192055,430.782959 
	C123.645691,430.485046 124.099335,430.187134 124.552979,429.889221 
	C123.281876,427.895630 122.408836,425.295532 120.605919,424.112244 
	C119.308533,423.260803 115.775581,422.345764 115.813286,427.334595 
M652.531128,384.625336 
	C655.093628,384.447388 657.656067,384.269440 660.218567,384.091461 
	C660.198425,383.713593 660.178284,383.335693 660.158142,382.957825 
	C654.550232,382.957825 648.942322,382.957825 643.334412,382.957825 
	C643.326843,383.283844 643.319336,383.609863 643.311768,383.935913 
	C646.092285,384.142731 648.872803,384.349579 652.531128,384.625336 
M168.631073,418.026154 
	C162.987747,418.967896 162.987747,418.967896 162.626495,422.824615 
	C167.080948,422.023163 171.680588,421.195587 177.726807,420.107727 
	C174.230576,419.251343 171.847427,418.667633 168.631073,418.026154 
M253.383118,414.376526 
	C254.159561,416.237183 254.936005,418.097839 256.058777,420.788483 
	C258.461426,411.772705 258.367279,411.357605 254.033981,408.396454 
	C253.757919,410.074982 253.464859,411.856842 253.383118,414.376526 
M165.776413,443.591949 
	C164.888153,443.591949 163.999908,443.591949 163.111649,443.591949 
	C163.099213,444.000854 163.086761,444.409760 163.074310,444.818665 
	C166.306610,445.036133 169.538910,445.253601 172.972397,445.484589 
	C173.287216,444.529968 173.647446,443.437714 174.271194,441.546387 
	C171.228760,442.218872 168.884048,442.737183 165.776413,443.591949 
M252.797028,500.993530 
	C252.215179,501.764954 251.633347,502.536377 250.858719,503.563416 
	C252.688065,504.288391 254.230377,504.899597 255.796936,505.520447 
	C255.796936,502.338348 255.796936,499.824127 255.796936,496.159454 
	C254.436966,498.363831 253.826492,499.353333 252.797028,500.993530 
M150.995056,478.565613 
	C149.636810,477.789001 148.278549,477.012421 146.648392,476.080353 
	C146.031586,479.388153 145.624725,481.570038 145.020050,484.812714 
	C147.479645,482.555511 149.248276,480.932434 150.995056,478.565613 
M210.500259,466.959930 
	C213.659241,465.703766 216.818222,464.447601 219.977203,463.191437 
	C216.148270,462.388092 212.336380,461.974213 209.236343,465.253601 
	C209.059158,465.441040 209.553528,466.263306 210.500259,466.959930 
M230.863770,497.091461 
	C228.529663,496.897156 226.196243,496.669586 223.859085,496.620239 
	C223.757278,496.618103 223.620941,498.250916 223.500671,499.122131 
	C225.723404,498.781586 227.946686,498.444427 230.167740,498.093262 
	C230.321442,498.068939 230.458740,497.940887 230.863770,497.091461 
M100.982491,510.281158 
	C101.924332,510.689270 103.554756,511.614960 103.698753,511.423370 
	C104.822205,509.928741 105.659874,508.219269 106.585808,506.576141 
	C105.941200,506.122437 105.296585,505.668732 104.651978,505.214996 
	C103.472069,506.626984 102.292152,508.038971 100.982491,510.281158 
M100.554001,418.789032 
	C99.974792,419.472687 99.395584,420.156342 98.816376,420.839966 
	C99.051781,421.029877 99.287186,421.219757 99.522583,421.409637 
	C100.045372,420.764191 100.568153,420.118774 100.554001,418.789032 
M395.597321,484.232880 
	C395.522003,484.424469 395.446716,484.616058 395.371429,484.807648 
	C395.574066,484.751617 395.776733,484.695618 395.597321,484.232880 
M724.771423,411.530182 
	C724.603210,411.514069 724.434998,411.497955 724.266785,411.481812 
	C724.341309,411.589203 724.415771,411.696594 724.771423,411.530182 
z"/>
</svg>